<svg width="16" height="16" viewBox="0 0 16 16" fill="none" xmlns="http://www.w3.org/2000/svg">
<path fill-rule="evenodd" clip-rule="evenodd" d="M8 2V0C12.4183 0 16 3.58172 16 8C16 12.4183 12.4183 16 8 16V14C11.3137 14 14 11.3137 14 8C14 4.68629 11.3137 2 8 2ZM4.17586 12.6236C4.68823 13.0479 5.27229 13.3886 5.90717 13.6249L4.86603 15.4282L3.13398 14.4282L4.17586 12.6236ZM2.3751 10.0928C2.61141 10.7277 2.95213 11.3118 3.37639 11.8242L1.5718 12.866L0.571801 11.134L2.3751 10.0928ZM2 8C2 8.34071 2.0284 8.67479 2.08296 9H0V7H2.08296C2.0284 7.32521 2 7.65929 2 8ZM3.37638 4.17585C2.95213 4.68823 2.61141 5.27229 2.37509 5.90716L0.5718 4.86603L1.5718 3.13398L3.37638 4.17585ZM3.13398 1.57181L4.17585 3.37639C4.68822 2.95213 5.27228 2.61141 5.90716 2.3751L4.86603 0.571808L3.13398 1.57181ZM5.13333 7.69231L6.83333 10.1538L11.3667 4L12.5 4.61538L7.4 12H6.26667L4 8.92308L5.13333 7.69231Z" fill="#292E33"/>
</svg>
